<?xml version="1.0" standalone="no"?>
<!DOCTYPE svg PUBLIC "-//W3C//DTD SVG 20010904//EN"
 "http://www.w3.org/TR/2001/REC-SVG-20010904/DTD/svg10.dtd">
<svg version="1.0" xmlns="http://www.w3.org/2000/svg"
 width="512.000000pt" height="512.000000pt" viewBox="0 0 512.000000 512.000000"
 preserveAspectRatio="xMidYMid meet">
<metadata>
Created by potrace 1.11, written by Peter Selinger 2001-2013
</metadata>
<g transform="translate(0.000000,512.000000) scale(0.100000,-0.100000)"
fill="#000000" stroke="none">
<path d="M930 3448 c-279 -33 -482 -251 -517 -556 -4 -34 -2 -56 5 -60 8 -6
205 -8 273 -3 13 1 17 15 21 64 9 102 67 214 136 260 52 34 101 48 169 48 111
1 202 -47 251 -130 24 -40 27 -57 27 -132 0 -78 -3 -90 -30 -135 -60 -97 -170
-146 -347 -153 l-28 -1 0 -110 0 -110 58 -1 c93 -2 134 -7 182 -19 25 -6 54
-14 66 -17 47 -11 119 -78 147 -136 44 -90 40 -211 -9 -308 -88 -175 -390
-220 -543 -83 -74 67 -111 157 -120 293 -1 18 -10 19 -151 19 l-151 -1 6 -56
c10 -98 31 -199 46 -216 5 -5 9 -15 9 -21 0 -24 68 -129 113 -175 68 -70 184
-134 282 -155 332 -72 663 53 789 296 65 127 76 226 43 401 -9 46 -59 141 -95
181 -48 53 -106 91 -171 113 l-54 18 46 21 c140 68 212 191 216 369 4 218
-113 375 -344 459 -44 16 -80 29 -80 28 0 -1 -16 1 -35 4 -65 10 -145 12 -210
4z"/>
<path d="M3957 3448 c-288 -34 -490 -287 -532 -668 -3 -30 -8 -72 -11 -93 -7
-47 -7 -327 0 -382 3 -22 8 -65 11 -95 11 -107 48 -236 97 -339 41 -85 62
-116 122 -176 113 -113 216 -155 396 -160 189 -5 357 77 463 228 61 86 89 146
120 257 30 108 32 120 42 216 4 38 9 80 11 94 5 33 5 271 -1 335 -4 48 -8 79
-21 175 -9 72 -53 209 -90 283 -124 248 -328 357 -607 325z m172 -260 c51 -13
125 -80 158 -143 63 -122 91 -288 91 -550 0 -411 -77 -630 -243 -693 -87 -33
-201 -12 -266 50 -71 67 -126 201 -144 354 -3 27 -8 69 -11 94 -7 61 -7 309 1
395 17 199 69 353 144 433 35 36 69 54 124 67 55 13 76 12 146 -7z"/>
<path d="M1897 3412 c-2 -4 -5 -64 -6 -134 l-1 -128 480 -2 480 -3 -23 -25
c-172 -189 -388 -532 -500 -793 -75 -175 -138 -389 -163 -552 -3 -16 -7 -39
-9 -51 -2 -11 -7 -50 -11 -87 l-6 -67 166 0 166 0 2 33 c2 53 11 126 24 208 3
22 26 139 40 207 2 12 20 74 39 136 101 334 263 628 511 928 l72 87 -1 123 -2
123 -627 2 c-345 1 -629 -1 -631 -5z"/>
</g>
</svg>
